<?xml version="1.0" encoding="UTF-8"?>
<svg width="16px" height="16px" viewBox="0 0 16 16" version="1.1" xmlns="http://www.w3.org/2000/svg" xmlns:xlink="http://www.w3.org/1999/xlink">
    <title>coin</title>
    <g id="coin" stroke="none" stroke-width="1" fill="none" fill-rule="evenodd">
        <path d="M5,13 L4,13 L4,12 L5,12 L5,11 L4,11 L4,12 L3,12 L3,11 L4,11 L4,5 L5,5 L5,4 L6,4 L6,3 L12,3 L12,4 L13,4 L13,5 L14,5 L14,11 L13,11 L13,12 L12,12 L12,13 L6,13 L6,12 L5,12 L5,13 Z M10,5 L10,6 L11,6 L11,10 L10,10 L10,11 L9,11 L9,12 L11,12 L11,11 L12,11 L12,10 L13,10 L13,6 L12,6 L12,5 L11,5 L11,4 L7,4 L7,5 L6,5 L6,6 L7,6 L7,5 L10,5 Z M3,5 L3,11 L2,11 L2,5 L3,5 Z M9,6 L8,6 L8,10 L9,10 L9,6 Z M4,4 L4,5 L3,5 L3,4 L4,4 Z M5,3 L5,4 L4,4 L4,3 L5,3 Z" fill="#000000"></path>
    </g>
</svg>