<svg width="24" height="24" viewBox="0 0 24 24" fill="none" xmlns="http://www.w3.org/2000/svg">
<path d="M14.6667 9.66667H13.6667V10.6667H14.6667V9.66667Z" fill="white"/>
<path d="M14.6667 13.6667H13.6667V14.6667H14.6667V13.6667Z" fill="white"/>
<path d="M13.6667 10.6667H12.6667V11.6667H13.6667V10.6667Z" fill="white"/>
<path d="M13.6667 12.6667H12.6667V13.6667H13.6667V12.6667Z" fill="white"/>
<path d="M10.6667 9.66667H9.66667V10.6667H10.6667V9.66667Z" fill="white"/>
<path d="M10.6667 13.6667H9.66667V14.6667H10.6667V13.6667Z" fill="white"/>
<path d="M9.66667 8.66667H8.66667V9.66667H9.66667V8.66667Z" fill="white"/>
<path d="M15.6667 8.66667H14.6667V9.66667H15.6667V8.66667Z" fill="white"/>
<path d="M11.6667 12.6667H10.6667V13.6667H11.6667V12.6667Z" fill="white"/>
<path d="M11.6667 10.6667H10.6667V11.6667H11.6667V10.6667Z" fill="white"/>
<path d="M12.6667 11.6667H11.6667V12.6667H12.6667V11.6667Z" fill="white"/>
<path d="M9.66667 14.6667H8.66667V15.6667H9.66667V14.6667Z" fill="white"/>
<path d="M15.6667 14.6667H14.6667V15.6667H15.6667V14.6667Z" fill="white"/>
<path d="M17.6667 6.66667V5.66667H6.66667V6.66667L17.6667 6.66667Z" fill="white"/>
<path d="M5.66667 17.6667H6.66667V6.66667H5.66667V17.6667Z" fill="white"/>
<path d="M17.6667 18.6667V17.6667H6.66667V18.6667H17.6667Z" fill="white"/>
<path d="M18.6667 6.66667L17.6667 6.66667V17.6667H18.6667V6.66667Z" fill="white"/>
</svg>
