<?xml version="1.0" encoding="UTF-8"?>
<svg width="16px" height="16px" viewBox="0 0 16 16" version="1.1" xmlns="http://www.w3.org/2000/svg" xmlns:xlink="http://www.w3.org/1999/xlink">
    <title>flask</title>
    <g id="flask" stroke="none" stroke-width="1" fill="none" fill-rule="evenodd">
        <path d="M8,7 L8,8 L7,8 L7,13 L8,13 L8,14 L12,14 L12,15 L4,15 L4,14 L6,14 L6,13 L4,13 L4,14 L3,14 L3,13 L4,13 L4,10 L5,10 L5,8 L6,8 L6,7 L8,7 Z M13,13 L13,14 L12,14 L12,13 L13,13 Z M3,9 L3,13 L2,13 L2,9 L3,9 Z M14,9 L14,13 L13,13 L13,9 L14,9 Z M12,10 L12,13 L8,13 L8,10 L12,10 Z M13,8 L13,9 L12,9 L12,8 L13,8 Z M4,8 L4,9 L3,9 L3,8 L4,8 Z M12,7 L12,8 L11,8 L11,7 L12,7 Z M5,7 L5,8 L4,8 L4,7 L5,7 Z M11,6 L11,7 L10,7 L10,6 L11,6 Z M6,6 L6,7 L5,7 L5,6 L6,6 Z M7,4 L7,6 L6,6 L6,4 L7,4 Z M10,4 L10,6 L9,6 L9,4 L10,4 Z M11,1 L11,3 L5,3 L5,1 L11,1 Z" fill="#000000"></path>
    </g>
</svg>