<?xml version="1.0" encoding="UTF-8"?>
<svg width="16px" height="16px" viewBox="0 0 16 16" version="1.1" xmlns="http://www.w3.org/2000/svg" xmlns:xlink="http://www.w3.org/1999/xlink">
    <title>folder</title>
    <g id="folder" stroke="none" stroke-width="1" fill="none" fill-rule="evenodd">
        <path d="M15,7 L15,9 L15,9 L14,9 L14,11 L13,11 L13,13 L12,13 L12,14 L2,14 L2,13 L3,13 L3,11 L4,11 L4,9 L5,9 L5,7 L15,7 L15,7 Z M5,3 L5,4 L6,4 L6,5 L12,5 L12,6 L5,6 L5,7 L4,7 L4,9 L3,9 L3,11 L2,11 L2,13 L1,13 L1,3 L5,3 Z" fill="#000000"></path>
    </g>
</svg>