<?xml version="1.0" encoding="UTF-8"?>
<svg width="16px" height="16px" viewBox="0 0 16 16" version="1.1" xmlns="http://www.w3.org/2000/svg" xmlns:xlink="http://www.w3.org/1999/xlink">
    <title>home</title>
    <g id="home" stroke="none" stroke-width="1" fill="none" fill-rule="evenodd">
        <path d="M9,6 L9,7 L10,7 L10,8 L11,8 L11,9 L12,9 L12,10 L13,10 L13,15 L10,15 L10,11 L6,11 L6,15 L3,15 L3,10 L4,10 L4,9 L5,9 L5,8 L6,8 L6,7 L7,7 L7,6 L9,6 Z M9,12 L9,15 L7,15 L7,12 L9,12 Z M9,1 L9,2 L10,2 L10,3 L11,3 L11,4 L12,4 L12,5 L13,5 L13,6 L14,6 L14,9 L13,9 L13,8 L12,8 L12,7 L11,7 L11,6 L10,6 L10,5 L9,5 L9,4 L7,4 L7,5 L6,5 L6,6 L5,6 L5,7 L4,7 L4,8 L3,8 L3,9 L2,9 L2,6 L3,6 L3,5 L4,5 L4,4 L5,4 L5,3 L6,3 L6,2 L7,2 L7,1 L9,1 Z" fill="#000000"></path>
    </g>
</svg>