<?xml version="1.0" encoding="UTF-8"?>
<svg width="16px" height="16px" viewBox="0 0 16 16" version="1.1" xmlns="http://www.w3.org/2000/svg" xmlns:xlink="http://www.w3.org/1999/xlink">
    <title>monitor</title>
    <g id="monitor" stroke="none" stroke-width="1" fill="none" fill-rule="evenodd">
        <path d="M15,1 L15,13 L10,13 L10,14 L12,14 L12,15 L4,15 L4,14 L6,14 L6,13 L1,13 L1,1 L15,1 Z M14,11 L13,11 L13,12 L14,12 L14,11 Z M12,11 L11,11 L11,12 L12,12 L12,11 Z M3,11 L2,11 L2,12 L3,12 L3,11 Z M14,2 L2,2 L2,10 L14,10 L14,2 Z M13,3 L13,4 L12,4 L12,5 L11,5 L11,6 L10,6 L10,7 L9,7 L9,8 L8,8 L8,9 L5,9 L5,8 L6,8 L6,7 L7,7 L7,6 L8,6 L8,5 L9,5 L9,4 L10,4 L10,3 L13,3 Z M13,7 L13,9 L11,9 L11,8 L12,8 L12,7 L13,7 Z M7,3 L7,4 L6,4 L6,5 L5,5 L5,6 L4,6 L4,7 L3,7 L3,5 L4,5 L4,4 L5,4 L5,3 L7,3 Z" fill="#000000"></path>
    </g>
</svg>