<?xml version="1.0" encoding="UTF-8"?>
<svg width="16px" height="16px" viewBox="0 0 16 16" version="1.1" xmlns="http://www.w3.org/2000/svg" xmlns:xlink="http://www.w3.org/1999/xlink">
    <title>speech-question</title>
    <g id="speech-question" stroke="none" stroke-width="1" fill="none" fill-rule="evenodd">
        <path d="M13,2 L13,3 L14,3 L14,4 L15,4 L15,11 L14,11 L14,12 L13,12 L13,13 L8,13 L8,14 L7,14 L7,15 L6,15 L6,13 L3,13 L3,12 L2,12 L2,11 L1,11 L1,4 L2,4 L2,3 L3,3 L3,2 L13,2 Z M9,10 L7,10 L7,11 L9,11 L9,10 Z M10,4 L6,4 L6,5 L5,5 L5,6 L7,6 L7,5 L9,5 L9,6 L8,6 L8,7 L7,7 L7,9 L9,9 L9,8 L10,8 L10,7 L11,7 L11,5 L10,5 L10,4 Z" id="Combined-Shape" fill="#000000"></path>
    </g>
</svg>